<?xml version="1.0" standalone="no"?>
<!DOCTYPE svg PUBLIC "-//W3C//DTD SVG 20010904//EN"
 "http://www.w3.org/TR/2001/REC-SVG-20010904/DTD/svg10.dtd">
<svg version="1.0" xmlns="http://www.w3.org/2000/svg"
 width="468pt" height="452pt" viewBox="0 0 468 452"
 preserveAspectRatio="xMidYMid meet">
<metadata>
Created by POTRACE VERSION, written by Peter Selinger 2001-2007
</metadata>
<g transform="translate(0,452) scale(0.022631,-0.022631)"
fill="#9a9a9a" stroke="none">
<path d="M2670 19704 c-19 -2 -78 -9 -130 -14 -52 -6 -150 -22 -218 -36 -68
-14 -179 -43 -247 -65 -69 -22 -173 -60 -231 -84 -59 -25 -153 -70 -209 -100
-56 -30 -144 -82 -196 -116 -52 -34 -121 -82 -154 -108 -33 -25 -98 -80 -145
-122 -47 -42 -120 -112 -163 -156 -42 -44 -110 -120 -149 -169 -39 -49 -104
-138 -144 -199 -39 -60 -95 -153 -123 -205 -27 -52 -71 -144 -95 -203 -25 -59
-63 -163 -85 -230 -21 -67 -46 -159 -55 -202 -9 -44 -27 -193 -41 -331 l-25
-250 30 -280 c21 -203 37 -309 59 -389 16 -60 45 -153 64 -205 19 -52 53 -136
76 -186 22 -50 64 -133 92 -185 29 -52 80 -137 115 -189 35 -52 93 -133 131
-180 37 -47 124 -141 193 -210 69 -69 163 -157 210 -194 47 -38 134 -101 195
-141 60 -41 162 -101 225 -134 63 -33 165 -80 225 -105 61 -24 163 -60 227
-80 65 -20 164 -45 220 -57 57 -11 150 -28 208 -37 94 -14 388 -16 2775 -22
l2670 -6 155 -22 c86 -12 217 -33 293 -47 75 -14 206 -43 290 -64 84 -22 225
-63 313 -91 87 -29 231 -82 319 -117 88 -35 246 -106 350 -158 105 -51 253
-130 330 -176 77 -45 196 -118 265 -163 69 -45 182 -123 252 -174 69 -50 175
-131 235 -179 59 -47 155 -127 213 -177 57 -50 175 -158 262 -239 86 -81 224
-219 305 -305 81 -87 204 -223 273 -302 69 -80 171 -201 226 -270 55 -69 168
-215 249 -325 82 -109 221 -307 310 -440 88 -132 224 -346 302 -475 77 -129
182 -309 233 -400 51 -91 150 -277 221 -415 70 -137 165 -329 210 -425 44 -96
113 -247 151 -335 39 -88 97 -224 129 -303 33 -79 82 -202 110 -275 28 -73 88
-238 134 -367 45 -129 89 -255 98 -280 14 -41 15 325 13 3930 -2 2981 -5 4010
-14 4115 -7 77 -19 183 -28 235 -9 52 -24 127 -35 165 -10 39 -30 120 -43 181
-14 60 -43 168 -66 240 -24 71 -64 184 -91 251 -27 68 -75 178 -107 245 -32
68 -87 173 -122 233 -34 61 -92 155 -129 210 -36 55 -104 152 -152 215 -47 63
-136 171 -196 240 -60 69 -166 179 -234 245 -69 66 -163 152 -210 191 -46 39
-129 106 -184 149 -55 43 -176 128 -270 190 -93 62 -232 147 -308 189 -75 43
-189 102 -253 132 -63 30 -168 76 -232 103 -64 27 -170 68 -235 90 -66 23
-183 56 -260 75 -78 20 -182 42 -232 50 -49 9 -126 18 -170 21 -44 4 -93 9
-110 13 -16 3 -1785 7 -3930 8 -2145 0 -3916 -1 -3935 -2z"/>
<path d="M17640 19694 c-19 -2 -78 -9 -130 -15 -52 -5 -150 -22 -218 -35 -68
-14 -179 -43 -247 -65 -69 -22 -173 -60 -232 -85 -59 -24 -151 -67 -203 -95
-52 -28 -151 -88 -220 -134 -69 -46 -163 -114 -209 -151 -47 -38 -133 -116
-191 -174 -59 -59 -144 -152 -189 -209 -45 -56 -104 -135 -131 -175 -27 -40
-72 -113 -101 -162 -29 -48 -73 -134 -99 -189 -26 -55 -64 -145 -84 -199 -21
-54 -53 -155 -72 -225 -19 -69 -43 -178 -54 -241 -11 -63 -24 -164 -30 -225
-5 -60 -10 -162 -10 -225 0 -63 5 -164 10 -225 6 -60 19 -162 30 -225 11 -63
35 -172 54 -241 19 -70 51 -171 72 -225 20 -54 58 -144 84 -199 26 -55 70
-141 99 -189 29 -49 74 -122 101 -162 27 -40 86 -119 131 -175 45 -57 130
-150 189 -209 58 -58 144 -136 191 -174 46 -37 140 -105 209 -151 69 -46 168
-106 220 -134 52 -28 143 -70 201 -95 59 -24 158 -61 220 -81 63 -20 161 -47
219 -60 58 -13 159 -32 225 -41 87 -13 182 -18 350 -18 168 0 263 5 350 18 66
9 167 28 225 41 58 13 156 40 219 60 62 20 161 57 220 81 58 25 149 67 201 95
52 28 151 88 220 134 69 46 163 114 209 151 47 38 133 116 191 174 59 59 144
152 189 209 45 56 104 135 131 175 27 40 72 113 101 162 29 48 73 134 99 189
26 55 64 145 84 199 21 54 53 155 72 225 19 69 43 178 54 241 11 63 24 165 30
225 5 61 10 162 10 225 0 63 -5 165 -10 225 -6 61 -19 162 -30 225 -11 63 -35
172 -54 241 -19 70 -51 171 -72 225 -20 54 -58 144 -84 199 -26 55 -70 141
-99 189 -29 49 -74 122 -101 162 -27 40 -86 119 -131 175 -45 57 -130 150
-189 209 -58 58 -144 136 -191 174 -46 37 -140 105 -209 151 -69 46 -168 106
-220 134 -52 28 -143 70 -201 95 -59 24 -157 60 -218 80 -62 20 -151 46 -199
57 -48 11 -145 29 -217 40 -86 13 -198 21 -330 24 -110 2 -216 1 -235 -1z"/>
<path d="M8610 14104 c33 -31 89 -91 123 -133 35 -42 82 -103 104 -136 22 -33
60 -98 83 -145 24 -47 54 -116 67 -155 13 -38 31 -108 38 -155 13 -73 15 -843
15 -5360 0 -3441 4 -5315 10 -5390 6 -63 17 -158 26 -210 9 -52 25 -133 36
-180 11 -47 35 -134 55 -194 19 -59 55 -156 79 -215 25 -58 68 -149 95 -201
28 -52 80 -140 116 -195 36 -54 91 -133 123 -175 32 -41 93 -114 137 -162 43
-48 114 -121 159 -161 44 -40 112 -98 150 -129 38 -30 110 -82 159 -115 50
-33 118 -76 152 -97 35 -21 120 -65 190 -98 71 -33 193 -82 273 -109 80 -27
195 -60 255 -73 61 -14 159 -32 219 -41 60 -9 182 -19 270 -22 96 -3 215 -1
296 6 74 7 194 23 266 36 72 14 184 40 250 59 65 19 171 55 234 81 63 25 170
75 237 110 67 35 168 93 224 130 56 37 147 104 203 149 55 44 148 128 206 186
58 58 139 148 182 200 42 52 111 147 153 210 42 63 110 183 151 265 41 83 92
199 114 258 22 60 53 159 69 220 17 62 39 164 51 227 11 63 24 167 30 230 6
72 10 883 10 2177 l0 2061 -26 154 c-14 84 -50 250 -80 368 -29 118 -85 317
-124 443 -39 125 -109 334 -156 464 -47 130 -123 329 -169 442 -46 113 -114
278 -153 366 -38 88 -107 239 -151 335 -45 96 -140 288 -210 425 -70 138 -180
342 -243 455 -64 113 -153 268 -200 345 -46 77 -131 212 -187 299 -57 88 -148
225 -203 305 -56 81 -160 225 -231 321 -72 96 -176 231 -231 300 -56 69 -158
190 -227 270 -70 80 -180 202 -245 271 -66 69 -191 195 -279 280 -88 85 -208
195 -265 245 -58 50 -161 135 -230 190 -69 55 -179 138 -245 185 -66 48 -165
116 -220 152 -56 35 -148 93 -205 127 -58 35 -190 107 -295 160 -104 53 -255
124 -335 157 -80 34 -212 84 -294 112 -81 28 -214 69 -294 91 -80 22 -152 40
-159 40 -8 0 13 -25 47 -56z"/>
</g>
</svg>
