<?xml version="1.0" standalone="no"?>
<!DOCTYPE svg PUBLIC "-//W3C//DTD SVG 20010904//EN"
 "http://www.w3.org/TR/2001/REC-SVG-20010904/DTD/svg10.dtd">
<svg version="1.0" xmlns="http://www.w3.org/2000/svg"
 width="468pt" height="197pt" viewBox="0 0 468 197"
 preserveAspectRatio="xMidYMid meet">
<metadata>
Created by POTRACE VERSION, written by Peter Selinger 2001-2007
</metadata>
<g transform="translate(0,197) scale(0.023400,-0.023400)"
fill="#FF7F11" stroke="none">
<path d="M9545 8393 c-16 -2 -57 -8 -90 -15 -33 -6 -78 -19 -100 -28 -22 -10
-56 -35 -76 -57 -20 -22 -41 -56 -47 -74 -6 -19 -13 -70 -16 -115 -3 -45 -10
-103 -15 -130 -5 -27 -21 -130 -36 -229 -14 -99 -34 -217 -45 -261 -11 -45
-25 -120 -31 -166 l-13 -85 -225 -6 c-124 -4 -300 -13 -391 -21 -91 -9 -249
-24 -352 -35 -140 -15 -198 -26 -228 -41 -22 -11 -51 -37 -64 -58 -14 -20 -31
-59 -38 -85 -9 -34 -9 -53 -2 -65 6 -9 47 -38 92 -63 52 -29 108 -52 154 -62
63 -13 139 -14 547 -10 l474 6 -7 -84 c-3 -46 -23 -327 -43 -624 l-37 -540 0
-695 c0 -382 6 -870 13 -1085 6 -214 16 -453 22 -530 6 -90 23 -197 46 -299
19 -87 50 -213 69 -280 19 -66 46 -152 61 -191 14 -38 46 -110 71 -160 25 -49
71 -130 101 -180 31 -51 86 -120 126 -160 39 -38 99 -87 135 -108 36 -21 107
-51 158 -67 51 -17 134 -37 184 -46 72 -12 107 -13 168 -5 42 5 88 14 102 20
14 5 42 24 61 41 20 17 41 47 47 66 7 20 9 54 6 78 -4 25 -32 86 -67 147 -33
57 -74 129 -89 160 -16 30 -36 84 -45 120 -9 35 -32 113 -51 173 -20 61 -48
166 -64 235 -16 69 -38 175 -49 234 -12 59 -28 192 -36 295 -8 103 -21 304
-29 447 -9 143 -21 427 -28 630 -8 225 -13 767 -13 1382 0 556 3 1014 6 1018
4 3 92 13 195 21 104 8 315 19 469 23 226 7 288 12 323 26 24 10 60 37 82 63
22 25 43 57 47 70 5 21 -2 33 -38 67 -30 28 -71 52 -126 73 -45 17 -121 40
-170 51 -49 11 -143 27 -209 36 -65 9 -207 18 -314 21 -107 3 -210 7 -228 10
l-34 5 5 152 c3 84 10 282 16 442 l10 290 -24 53 c-13 29 -49 77 -79 108 -31
30 -75 63 -98 73 -24 10 -59 20 -78 23 -19 2 -48 3 -65 1z"/>
<path d="M6267 7776 c-21 -8 -56 -26 -77 -41 -22 -15 -57 -50 -79 -79 -21 -28
-50 -73 -64 -101 -13 -27 -37 -84 -51 -125 -15 -41 -70 -214 -121 -385 -51
-170 -110 -355 -130 -410 -20 -55 -72 -208 -115 -340 -43 -132 -113 -355 -155
-495 -42 -140 -126 -417 -186 -615 -61 -198 -159 -508 -219 -690 -60 -181
-149 -463 -199 -625 -49 -162 -95 -314 -102 -338 -7 -23 -16 -39 -19 -35 -4 4
-39 105 -78 223 -39 118 -96 300 -127 403 -30 104 -90 288 -134 410 -43 122
-90 263 -105 312 -14 50 -35 131 -46 180 -12 50 -60 225 -107 390 -46 165 -95
318 -108 340 -13 22 -45 61 -72 86 -26 26 -73 67 -104 91 -31 25 -77 53 -103
63 -31 12 -63 16 -101 13 -41 -3 -67 -13 -105 -39 -29 -20 -76 -69 -114 -119
-35 -47 -75 -105 -89 -130 -14 -25 -53 -115 -87 -200 -34 -85 -84 -211 -112
-280 -28 -69 -73 -172 -101 -230 -27 -58 -91 -213 -143 -345 -51 -132 -120
-303 -153 -380 -34 -80 -62 -134 -65 -125 -3 8 -73 224 -155 480 -83 256 -242
740 -354 1075 -113 336 -239 705 -282 820 -42 116 -101 260 -130 321 -29 61
-74 145 -100 185 -26 40 -75 101 -109 135 -34 34 -95 83 -135 109 -40 26 -99
58 -132 71 -38 16 -79 24 -115 24 -31 0 -75 -6 -98 -12 -23 -7 -59 -30 -81
-53 -34 -34 -44 -53 -60 -120 -15 -61 -20 -115 -20 -225 l0 -145 139 -560 c76
-308 239 -965 363 -1459 123 -494 244 -968 268 -1052 24 -84 63 -202 86 -261
23 -59 63 -154 89 -210 27 -55 68 -132 92 -170 25 -37 68 -92 97 -121 28 -30
74 -64 104 -78 30 -13 100 -32 157 -41 85 -14 119 -15 199 -6 53 6 132 23 176
38 43 14 109 46 146 71 37 24 78 59 92 77 13 18 50 82 80 144 31 61 65 137 76
170 11 32 31 120 45 194 14 75 36 176 50 225 14 49 48 154 75 234 27 80 105
296 173 480 69 184 142 386 164 448 21 61 41 112 45 112 3 0 13 -33 23 -72 10
-40 33 -111 51 -158 18 -47 45 -128 60 -180 14 -52 77 -255 140 -450 62 -195
146 -458 185 -585 39 -126 114 -360 167 -520 57 -175 118 -338 153 -412 32
-67 84 -162 115 -210 32 -48 89 -127 127 -175 39 -48 87 -98 107 -111 20 -13
53 -30 74 -36 24 -8 58 -11 92 -6 29 3 97 21 151 38 l99 32 52 100 c32 61 59
129 69 175 9 41 58 221 109 400 52 179 133 467 181 640 48 173 106 387 130
475 23 88 104 338 179 555 75 217 154 454 176 525 22 72 101 313 175 537 89
269 162 512 214 715 43 170 97 376 118 460 22 84 48 196 57 250 10 54 26 115
37 136 10 21 22 60 25 86 3 26 0 88 -6 137 -8 60 -21 109 -42 151 -19 40 -50
80 -89 117 -34 30 -81 67 -105 82 -30 17 -64 27 -102 30 -36 3 -73 -1 -96 -10z"/>
<path d="M16049 6496 c-25 -6 -60 -22 -77 -35 -18 -12 -44 -42 -58 -67 -14
-24 -32 -68 -39 -96 -8 -29 -18 -114 -24 -188 -5 -74 -13 -193 -16 -265 -4
-71 -2 -247 4 -390 6 -143 27 -429 46 -635 19 -206 40 -409 46 -450 6 -41 22
-127 35 -190 14 -63 47 -197 75 -298 27 -101 63 -218 80 -260 17 -42 53 -121
81 -174 28 -54 70 -120 92 -147 23 -26 61 -63 86 -80 25 -17 95 -52 155 -77
94 -39 117 -44 161 -40 31 2 78 18 120 39 38 19 95 55 127 80 31 24 71 62 88
83 17 22 46 69 65 107 19 37 63 136 98 220 35 83 93 238 129 343 36 105 124
330 196 502 72 171 164 387 205 480 41 93 86 191 101 218 l26 49 -5 -155 c-3
-85 -12 -328 -21 -540 -8 -212 -19 -560 -25 -775 -5 -214 -19 -523 -30 -685
-11 -162 -27 -374 -35 -470 -9 -96 -20 -213 -26 -260 -6 -47 -19 -137 -30
-200 -11 -63 -34 -169 -50 -235 -16 -66 -41 -156 -56 -200 -14 -44 -44 -120
-66 -170 -22 -49 -60 -121 -85 -160 -24 -38 -74 -99 -111 -136 -36 -36 -94
-85 -129 -108 -35 -24 -87 -53 -115 -66 -29 -13 -79 -31 -112 -40 -32 -8 -96
-15 -141 -15 -48 0 -112 8 -158 20 -43 11 -106 34 -139 51 -34 17 -86 50 -116
72 -30 23 -79 71 -109 107 -30 36 -75 97 -102 135 -26 39 -65 106 -87 150 -22
44 -55 121 -72 171 -18 53 -36 134 -43 193 -9 77 -9 127 0 209 6 59 18 133 27
165 8 32 15 79 15 105 0 28 -10 67 -24 97 -13 28 -33 59 -45 69 -13 12 -41 21
-75 24 -39 3 -65 -1 -97 -15 -24 -11 -108 -72 -186 -137 -78 -64 -157 -138
-176 -164 -19 -26 -61 -90 -94 -142 -32 -52 -67 -115 -76 -140 -9 -25 -23 -85
-32 -135 -9 -49 -16 -142 -16 -205 0 -64 4 -145 11 -180 6 -36 23 -103 36
-150 14 -47 46 -134 70 -194 25 -60 70 -155 101 -210 30 -56 80 -138 110 -183
31 -45 92 -124 137 -175 45 -51 115 -121 156 -156 41 -34 111 -88 155 -120 44
-31 130 -82 191 -113 62 -31 155 -71 207 -88 53 -18 136 -39 184 -47 48 -8
138 -14 200 -14 61 0 147 5 190 11 43 6 121 21 174 35 53 13 137 38 185 55 49
17 134 53 189 79 55 27 140 74 190 105 49 31 130 89 180 129 49 40 129 113
177 162 47 49 104 112 126 139 22 28 62 84 89 125 28 41 71 113 96 160 25 47
69 139 97 205 28 66 69 172 91 235 22 63 50 157 64 210 13 52 33 149 44 215
11 66 29 181 40 255 11 74 27 198 35 275 9 77 21 228 28 335 6 110 12 413 12
695 0 275 -6 608 -13 740 -6 132 -18 344 -27 470 -8 127 -21 311 -29 410 -8
99 -22 236 -30 305 -9 69 -25 179 -36 245 -11 66 -33 179 -50 252 -17 73 -45
176 -63 230 -18 54 -42 116 -54 138 -11 22 -33 53 -48 69 -15 15 -45 37 -68
47 -23 10 -64 19 -92 19 -39 0 -69 -9 -135 -41 -46 -22 -111 -52 -144 -66 -33
-14 -90 -45 -127 -69 -36 -25 -93 -75 -125 -112 -33 -37 -80 -95 -106 -128
-25 -34 -87 -124 -137 -200 -51 -78 -139 -235 -200 -359 -60 -121 -157 -331
-214 -467 -58 -136 -134 -325 -169 -420 -36 -95 -81 -224 -102 -286 -20 -63
-41 -110 -45 -105 -4 4 -19 69 -33 143 -15 74 -35 189 -46 255 -11 66 -27 183
-35 260 -9 77 -29 300 -46 495 -17 195 -37 409 -45 475 -9 66 -22 157 -30 202
-9 45 -27 117 -41 160 -14 43 -43 115 -65 161 -26 54 -57 100 -92 135 -29 28
-75 64 -102 78 -28 15 -68 29 -90 32 -22 3 -61 0 -86 -7z"/>
<path d="M13720 6493 c-41 -2 -336 -14 -655 -28 -319 -14 -616 -29 -660 -34
-44 -5 -242 -27 -440 -50 -198 -23 -411 -48 -474 -57 -63 -8 -150 -27 -193
-41 -43 -14 -102 -40 -131 -57 -28 -17 -62 -47 -75 -66 -20 -30 -23 -44 -19
-91 3 -37 17 -81 41 -129 20 -40 50 -91 66 -114 15 -22 40 -53 53 -67 14 -15
41 -36 60 -48 19 -11 54 -28 77 -36 24 -8 102 -24 174 -36 72 -11 178 -26 236
-34 58 -8 206 -21 330 -29 124 -9 368 -23 544 -31 175 -8 400 -15 499 -15
l180 0 -84 -79 c-46 -43 -201 -182 -344 -308 -143 -127 -303 -269 -355 -316
-52 -48 -118 -98 -145 -112 -28 -14 -78 -29 -110 -34 -33 -6 -99 -15 -148 -21
-48 -6 -165 -30 -260 -54 -94 -24 -241 -67 -326 -95 -85 -28 -170 -63 -188
-77 -18 -14 -40 -38 -48 -54 -8 -16 -15 -47 -15 -69 0 -22 8 -54 18 -70 10
-17 29 -39 43 -49 13 -10 40 -24 59 -31 27 -9 77 -8 238 5 112 9 206 14 209
11 3 -3 -41 -57 -97 -119 -57 -62 -160 -183 -229 -268 -70 -85 -163 -202 -208
-260 -44 -58 -113 -155 -152 -215 -39 -60 -100 -168 -135 -239 -35 -72 -80
-171 -99 -221 -20 -49 -43 -117 -51 -150 -9 -33 -16 -100 -16 -151 0 -64 6
-112 20 -157 14 -46 32 -77 61 -107 25 -26 73 -57 123 -81 46 -21 109 -45 141
-54 33 -8 100 -15 150 -15 49 0 162 5 251 10 88 5 207 19 265 30 57 12 138 30
179 40 41 11 152 44 245 74 94 30 478 131 855 224 377 94 723 177 770 186 47
8 141 22 210 31 69 10 154 28 190 42 36 13 85 36 110 50 25 15 84 62 132 106
l87 79 6 63 c5 40 3 76 -5 99 -6 20 -24 49 -39 64 -18 17 -56 36 -102 50 -41
12 -121 27 -178 32 -57 6 -170 10 -252 10 -81 0 -199 -7 -262 -15 -63 -8 -211
-39 -328 -69 -118 -30 -299 -79 -404 -110 -104 -30 -286 -80 -402 -111 -117
-30 -317 -91 -445 -135 -128 -43 -233 -78 -234 -77 -1 1 78 102 176 225 98
123 234 287 302 365 68 78 234 257 369 397 135 140 277 289 317 331 39 42 91
89 113 105 39 26 50 29 133 30 50 0 195 6 321 12 127 7 277 19 335 27 58 8
152 28 210 45 57 16 129 42 158 56 44 22 58 35 73 70 14 31 18 54 13 83 -4 22
-14 47 -23 55 -9 8 -61 33 -116 54 -55 22 -138 49 -185 61 -47 11 -147 29
-223 39 -75 10 -140 22 -144 26 -5 4 96 110 223 234 126 125 266 268 310 317
43 50 147 173 231 275 105 127 171 199 213 229 33 24 71 57 85 73 13 16 30 46
36 67 7 23 9 58 5 84 -4 24 -23 71 -42 103 -19 33 -52 76 -72 97 -20 21 -55
49 -77 62 -22 13 -112 46 -200 73 -88 28 -206 59 -262 71 -87 18 -132 21 -310
19 -114 -1 -242 -3 -283 -5z"/>
<path d="M7049 6461 c-25 -16 -62 -48 -82 -72 -20 -23 -46 -67 -57 -96 -11
-30 -20 -76 -20 -102 0 -27 9 -79 21 -115 14 -49 32 -79 62 -110 26 -27 57
-48 82 -55 22 -6 57 -11 77 -11 21 0 80 13 131 30 52 16 112 43 134 59 22 16
50 43 63 61 19 26 22 41 18 93 -2 43 -14 84 -36 132 -18 39 -48 85 -65 103
-18 19 -50 43 -72 54 -21 11 -64 29 -94 39 -30 11 -68 19 -85 19 -17 0 -52
-13 -77 -29z"/>
<path d="M7043 5799 c-22 -4 -60 -17 -83 -29 -22 -11 -58 -37 -80 -56 -21 -19
-48 -55 -60 -78 -11 -24 -27 -79 -36 -122 -12 -63 -16 -210 -21 -724 -4 -462
-3 -689 6 -800 7 -85 25 -306 42 -490 16 -184 39 -425 50 -535 11 -110 31
-252 45 -315 14 -63 39 -146 55 -184 16 -38 49 -99 74 -136 25 -37 64 -84 86
-105 23 -21 65 -48 93 -61 28 -12 79 -27 112 -33 39 -6 77 -6 104 0 23 5 54
16 70 24 15 8 42 31 60 51 18 21 42 58 54 83 16 37 21 66 21 146 0 55 -6 170
-13 255 -7 85 -29 385 -48 665 -20 281 -40 632 -44 780 -5 149 -10 387 -10
530 0 143 -5 306 -10 363 -5 57 -17 147 -26 200 -9 53 -27 140 -40 192 -13 52
-39 127 -59 166 -19 39 -53 91 -75 117 -23 26 -63 56 -93 70 -29 13 -70 26
-92 29 -22 2 -59 1 -82 -3z"/>
</g>
</svg>
